<?xml version="1.0" encoding="utf-8"?>
<?xml-stylesheet type="text/xsl" href="rss1.xsl"?>
<rss version="2.0" xmlns:atom="http://www.w3.org/2005/Atom" xmlns:content="http://purl.org/rss/1.0/modules/content/" xmlns:dc="http://purl.org/dc/elements/1.1/" xmlns:media="http://search.yahoo.com/mrss/">
<channel>
 <title>Getty</title>
 <link>http://www.gettyimg.com/</link>
 <atom:link href="http://www.gettyimg.com/" rel="self" type="application/rss+xml" />

 
                <item>
                <title><![CDATA[【Requests】[REQ VID] - Olivia Rodrigo - iHeartRadio Jingle Ball Tour Special (2023)]]></title>
                <link><![CDATA[https://sharemania.us/threads/olivia-rodrigo-iheartradio-jingle-ball-tour-special-2023.234454/]]></link>
                <description><![CDATA[<article>
<blockquote class="messageText SelectQuoteContainer ugc baseHtml">
Did anyone record Vampire, Can't Catch Me Now and All American Bi**h while they aired on ABC yesterday?<br>
<br>
Thanks in advance<br>
<img src="https://cdn1.edgedatg.com/aws/v2/abc/ABCUpdates/blog/4313690/b5c580d1f1e6944e981986719ff0c2cd/512x288-Q90_b5c580d1f1e6944e981986719ff0c2cd.jpg" class="bbCodeImage LbImage" alt="[​IMG]" data-url="https://cdn1.edgedatg.com/aws/v2/abc/ABCUpdates/blog/4313690/b5c580d1f1e6944e981986719ff0c2cd/512x288-Q90_b5c580d1f1e6944e981986719ff0c2cd.jpg" style="">
<div class="messageTextEndMarker">&nbsp;</div>
</blockquote>
</article>]]></description>
                <author><![CDATA[CaioGomez]]></author>
                </item>

                
                <item>
                <title><![CDATA[【DVD】DVD5 - Catedral - Acima do Nível do Mar - 15 Anos (DVD ISO) - 2003]]></title>
                <link><![CDATA[https://sharemania.us/threads/catedral-acima-do-n%C3%ADvel-do-mar-15-anos-dvd-iso-2003.234453/]]></link>
                <description><![CDATA[<article>
<blockquote class="messageText SelectQuoteContainer ugc baseHtml">
<img src="https://i.imgur.com/uoOzlAM.jpg" class="bbCodeImage LbImage" alt="[​IMG]" data-url="https://i.imgur.com/uoOzlAM.jpg" style=""> <br>
<div class="ToggleTriggerAnchor bbCodeSpoilerContainer">
<button type="button" class="button bbCodeSpoilerButton ToggleTrigger Tooltip JsOnly" data-target="> .SpoilerTarget"><span>Spoiler: <span class="SpoilerTitle">MediaInfo</span></span></button>
<div class="SpoilerTarget bbCodeSpoilerText">Format : ISO 9660 / DVD Video<br>
Format profile : Program<br>
File size : 4.05 GiB<br>
Duration : 51 min 17 s<br>
Overall bit rate mode : Variable<br>
Overall bit rate : 11.3 Mb/s<br>
Frame rate : 29.970 FPS<br>
Movie name : CATEDRAL<br>
Encoded date : 2004-01-05 16:22:40.00+02:00<br>
Writing application : SONIC SOLUTIONS IMAGESCRIPT (28374)<br>
<br>
Video<br>
ID : 224 (0xE0)<br>
Format : MPEG Video<br>
Format version : Version 2<br>
Format profile : Main@Main<br>
Format settings : BVOP<br>
Format settings, BVOP : Yes<br>
Format settings, Matrix : Default<br>
Format settings, GOP : M=3, N=13<br>
Format settings, picture struc : Field<br>
Duration : 51 min 17 s<br>
Bit rate mode : Variable<br>
Bit rate : 9 931 kb/s<br>
Maximum bit rate : 8 000 kb/s<br>
Width : 720 pixels<br>
Height : 480 pixels<br>
Display aspect ratio : 4:3<br>
Frame rate : 29.970 (29970/1000) FPS<br>
Original frame rate : 29.970 (30000/1001) FPS<br>
Standard : NTSC<br>
Color space : YUV<br>
Chroma subsampling : 4:2:0<br>
Bit depth : 8 bits<br>
Scan type : Interlaced<br>
Scan order : Top Field First<br>
Compression mode : Lossy<br>
Bits/(Pixel*Frame) : 0.959<br>
Time code of first frame : 01:00:21:17<br>
Time code source : Group of pictures header<br>
GOP, Open/Closed : Open<br>
Stream size : 3.56 GiB (88%)<br>
Color primaries : BT.601 NTSC<br>
Transfer characteristics : BT.601<br>
Matrix coefficients : BT.601<br>
Source : VIDEO_TS\VTS_01_0.IFO<br>
<br>
Audio #1<br>
ID : 189 (0xBD)-128 (0x80)<br>
Format : AC-3<br>
Format/Info : Audio Coding 3<br>
Commercial name : Dolby Digital<br>
Muxing mode : DVD-Video<br>
Duration : 51 min 17 s<br>
Bit rate mode : Constant<br>
Bit rate : 448 kb/s<br>
Channel(s) : 2 channels<br>
Channel layout : L R<br>
Sampling rate : 48.0 kHz<br>
Frame rate : 31.250 FPS (1536 SPF)<br>
Compression mode : Lossy<br>
Delay relative to video : 384 ms<br>
Stream size : 164 MiB (4%)<br>
Language : Portuguese<br>
Service kind : Complete Main<br>
Source : VIDEO_TS\VTS_01_0.IFO<br>
<br>
Audio #2<br>
ID : 189 (0xBD)-129 (0x81)<br>
Format : AC-3<br>
Format/Info : Audio Coding 3<br>
Commercial name : Dolby Digital<br>
Muxing mode : DVD-Video<br>
Duration : 51 min 17 s<br>
Bit rate mode : Constant<br>
Bit rate : 448 kb/s<br>
Channel(s) : 6 channels<br>
Channel layout : L R C LFE Ls Rs<br>
Sampling rate : 48.0 kHz<br>
Frame rate : 31.250 FPS (1536 SPF)<br>
Compression mode : Lossy<br>
Delay relative to video : 384 ms<br>
Stream size : 164 MiB (4%)<br>
Language : Portuguese<br>
Service kind : Complete Main<br>
Source : VIDEO_TS\VTS_01_0.IFO<br>
<br>
Text #1<br>
ID : 189 (0xBD)-32 (0x20)<br>
Format : RLE<br>
Format/Info : Run-length encoding<br>
Duration : 51 min 17 s<br>
Bit depth : 2 bits<br>
Language : Portuguese<br>
Source : VIDEO_TS\VTS_01_0.IFO<br>
<br>
Text #2<br>
ID : 189 (0xBD)-32 (0x20)<br>
Format : RLE<br>
Format/Info : Run-length encoding<br>
Duration : 51 min 17 s<br>
Bit depth : 2 bits<br>
Language : English<br>
Source : VIDEO_TS\VTS_01_0.IFO<br>
<br>
Text #3<br>
ID : 189 (0xBD)-32 (0x20)<br>
Format : RLE<br>
Format/Info : Run-length encoding<br>
Duration : 51 min 17 s<br>
Bit depth : 2 bits<br>
Language : Spanish<br>
Source : VIDEO_TS\VTS_01_0.IFO<br>
<br>
Menu<br>
Duration : 51 min 17 s<br>
00:00:00.000 : Chapter 1<br>
00:04:19.567 : Chapter 2<br>
00:06:49.500 : Chapter 3<br>
00:10:36.133 : Chapter 4<br>
00:14:11.933 : Chapter 5<br>
00:17:36.033 : Chapter 6<br>
00:22:05.567 : Chapter 7<br>
00:26:13.433 : Chapter 8<br>
00:29:38.400 : Chapter 9<br>
00:33:23.300 : Chapter 10<br>
00:37:17.300 : Chapter 11<br>
00:40:33.600 : Chapter 12<br>
00:43:29.100 : Chapter 13<br>
00:47:03.167 : Chapter 14<br>
List (Audio) : 0 / 1<br>
List (Subtitles 4/3) : 0 / 1 / 2<br>
List (Subtitles Wide) : 0 / 0 / 0<br>
List (Subtitles Letterbox) : 0 / 0 / 0<br>
List (Subtitles Pan&amp;Scan) : 0 / 0 / 0<br>
Source : VIDEO_TS\VTS_01_0.IFO</div>
</div><br>
<b><span style="text-decoration: underline">Acima do Nível do Mar</span></b> é um álbum acústico ao vivo da banda Catedral, lançado em Dezembro de 2003 pela gravadora Line Records em parceria com a Record Music. O DVD foi gravado no Teatro Record no Rio de Janeiro.<br>
<br>
<b><span style="text-decoration: underline">Lista de faixas:</span></b><br>
1 "Cotidiano"<br>
2 "Hoje"<br>
3 "O Nosso Amor"<br>
4 "Quem disse que o Amor pode Acabar?"<br>
5 "Sabe Lá"<br>
6 "O Sentido"<br>
7 "Sobre muitas Coisas"<br>
8 "Chame a Deus"<br>
9 "Eu quero Sol nesse Jardim"<br>
10 "Eu Amo Mais Você"<br>
11 "Drogas"<br>
12 "A Tempestade e o Sol"<br>
13 "Rio de Janeiro a Dezembro"<br>
14 "Tchau"<br>
<br>
<div class="bbCodeBlock bbCodeVfcHH HiddenContent">
<div class="attribution type">Hidden Content:</div>
<blockquote>You must either reply or click 'Like' to see the hidden information contained here.</blockquote>
</div>password:
<div class="bbCodeBlock bbCodeVfcHH HiddenContent">
<div class="attribution type">Hidden Content:</div>
<blockquote>You must reply before you can see the hidden data contained here.</blockquote>
</div>
<div class="messageTextEndMarker">&nbsp;</div>
</blockquote>
</article>]]></description>
                <author><![CDATA[JrAleixo]]></author>
                </item>

                </channel></rss>